<?xml version="1.0" standalone="no"?>
<!DOCTYPE svg PUBLIC "-//W3C//DTD SVG 20010904//EN"
 "http://www.w3.org/TR/2001/REC-SVG-20010904/DTD/svg10.dtd">
<svg version="1.0" xmlns="http://www.w3.org/2000/svg"
 width="260.000000pt" height="260.000000pt" viewBox="0 0 260.000000 260.000000"
 preserveAspectRatio="xMidYMid meet">
<metadata>
Created by potrace 1.11, written by Peter Selinger 2001-2013
</metadata>
<g transform="translate(0.000000,260.000000) scale(0.100000,-0.100000)"
fill="#000000" stroke="none">
<path d="M1066 2584 c-244 -44 -479 -163 -661 -336 -186 -176 -309 -387 -373
-638 -40 -157 -40 -463 0 -620 64 -251 187 -462 373 -638 185 -175 419 -293
669 -337 115 -20 337 -20 452 0 508 89 913 468 1042 975 25 97 27 121 27 310
0 189 -2 213 -27 310 -64 251 -187 462 -373 638 -185 175 -419 293 -669 337
-111 19 -352 19 -460 -1z m894 -484 l0 -130 -135 0 -135 0 0 -666 0 -667 -65
6 -65 6 0 -69 0 -70 -65 0 -65 0 0 -65 0 -65 -265 0 -264 0 -3 62 -3 63 -67 3
-68 3 0 64 c0 64 0 65 -27 65 -16 0 -45 3 -65 6 l-38 7 0 128 0 129 135 0 135
0 0 -65 0 -65 65 0 65 0 0 -65 0 -65 53 0 c30 0 88 -3 130 -6 l77 -7 0 72 0
71 65 0 65 0 0 595 0 595 -130 0 -130 0 0 130 0 130 400 0 400 0 0 -130z"/>
</g>
</svg>
